<mxfile host="app.diagrams.net" agent="Mozilla/5.0 (Macintosh; Intel Mac OS X 10_15_7) AppleWebKit/537.36 (KHTML, like Gecko) Chrome/131.0.0.0 Safari/537.36" version="25.0.3">
  <diagram id="C5RBs43oDa-KdzZeNtuy" name="Page-1">
    <mxGraphModel dx="1721" dy="513" grid="1" gridSize="10" guides="1" tooltips="1" connect="1" arrows="1" fold="1" page="1" pageScale="1" pageWidth="827" pageHeight="1169" math="0" shadow="0">
      <root>
        <mxCell id="WIyWlLk6GJQsqaUBKTNV-0" />
        <mxCell id="WIyWlLk6GJQsqaUBKTNV-1" parent="WIyWlLk6GJQsqaUBKTNV-0" />
        <mxCell id="RcemtysnxTZYNu4qjquN-39" value="" style="edgeStyle=orthogonalEdgeStyle;rounded=0;orthogonalLoop=1;jettySize=auto;html=1;" edge="1" parent="WIyWlLk6GJQsqaUBKTNV-1" source="RcemtysnxTZYNu4qjquN-11" target="RcemtysnxTZYNu4qjquN-32">
          <mxGeometry relative="1" as="geometry" />
        </mxCell>
        <mxCell id="RcemtysnxTZYNu4qjquN-40" value="" style="edgeStyle=orthogonalEdgeStyle;rounded=0;orthogonalLoop=1;jettySize=auto;html=1;" edge="1" parent="WIyWlLk6GJQsqaUBKTNV-1" source="RcemtysnxTZYNu4qjquN-11" target="RcemtysnxTZYNu4qjquN-32">
          <mxGeometry relative="1" as="geometry" />
        </mxCell>
        <mxCell id="RcemtysnxTZYNu4qjquN-48" value="" style="edgeStyle=orthogonalEdgeStyle;rounded=0;orthogonalLoop=1;jettySize=auto;html=1;" edge="1" parent="WIyWlLk6GJQsqaUBKTNV-1" source="RcemtysnxTZYNu4qjquN-11" target="RcemtysnxTZYNu4qjquN-47">
          <mxGeometry relative="1" as="geometry" />
        </mxCell>
        <mxCell id="RcemtysnxTZYNu4qjquN-11" value="Does email contain .edu domain and keywords (e.g., &quot;assignment&quot;)?" style="rhombus;whiteSpace=wrap;html=1;rounded=1;glass=0;strokeWidth=1;shadow=0;" vertex="1" parent="WIyWlLk6GJQsqaUBKTNV-1">
          <mxGeometry x="160" y="120" width="240" height="100" as="geometry" />
        </mxCell>
        <mxCell id="RcemtysnxTZYNu4qjquN-20" value="" style="edgeStyle=orthogonalEdgeStyle;rounded=0;orthogonalLoop=1;jettySize=auto;html=1;" edge="1" parent="WIyWlLk6GJQsqaUBKTNV-1" source="RcemtysnxTZYNu4qjquN-17" target="RcemtysnxTZYNu4qjquN-19">
          <mxGeometry relative="1" as="geometry" />
        </mxCell>
        <mxCell id="RcemtysnxTZYNu4qjquN-17" value="Start" style="strokeWidth=2;html=1;shape=mxgraph.flowchart.start_2;whiteSpace=wrap;rotation=0;" vertex="1" parent="WIyWlLk6GJQsqaUBKTNV-1">
          <mxGeometry x="-120" y="10" width="80" height="80" as="geometry" />
        </mxCell>
        <mxCell id="RcemtysnxTZYNu4qjquN-22" value="" style="edgeStyle=orthogonalEdgeStyle;rounded=0;orthogonalLoop=1;jettySize=auto;html=1;" edge="1" parent="WIyWlLk6GJQsqaUBKTNV-1" source="RcemtysnxTZYNu4qjquN-19" target="RcemtysnxTZYNu4qjquN-21">
          <mxGeometry relative="1" as="geometry" />
        </mxCell>
        <mxCell id="RcemtysnxTZYNu4qjquN-19" value="Connect to School Email" style="rounded=1;whiteSpace=wrap;html=1;strokeWidth=2;" vertex="1" parent="WIyWlLk6GJQsqaUBKTNV-1">
          <mxGeometry x="20" y="20" width="120" height="60" as="geometry" />
        </mxCell>
        <mxCell id="RcemtysnxTZYNu4qjquN-23" value="" style="edgeStyle=orthogonalEdgeStyle;rounded=0;orthogonalLoop=1;jettySize=auto;html=1;" edge="1" parent="WIyWlLk6GJQsqaUBKTNV-1" source="RcemtysnxTZYNu4qjquN-21" target="RcemtysnxTZYNu4qjquN-11">
          <mxGeometry relative="1" as="geometry" />
        </mxCell>
        <mxCell id="RcemtysnxTZYNu4qjquN-21" value="Fetch Unread Emails" style="rounded=1;whiteSpace=wrap;html=1;strokeWidth=2;" vertex="1" parent="WIyWlLk6GJQsqaUBKTNV-1">
          <mxGeometry x="220" y="20" width="120" height="60" as="geometry" />
        </mxCell>
        <mxCell id="RcemtysnxTZYNu4qjquN-54" value="" style="edgeStyle=orthogonalEdgeStyle;rounded=0;orthogonalLoop=1;jettySize=auto;html=1;" edge="1" parent="WIyWlLk6GJQsqaUBKTNV-1" source="RcemtysnxTZYNu4qjquN-32" target="RcemtysnxTZYNu4qjquN-53">
          <mxGeometry relative="1" as="geometry" />
        </mxCell>
        <mxCell id="RcemtysnxTZYNu4qjquN-32" value="Parse Email Content" style="rounded=1;whiteSpace=wrap;html=1;" vertex="1" parent="WIyWlLk6GJQsqaUBKTNV-1">
          <mxGeometry x="140" y="280" width="120" height="60" as="geometry" />
        </mxCell>
        <mxCell id="RcemtysnxTZYNu4qjquN-42" value="Yes" style="text;html=1;align=center;verticalAlign=middle;resizable=0;points=[];autosize=1;strokeColor=none;fillColor=none;" vertex="1" parent="WIyWlLk6GJQsqaUBKTNV-1">
          <mxGeometry x="220" y="220" width="40" height="30" as="geometry" />
        </mxCell>
        <mxCell id="RcemtysnxTZYNu4qjquN-52" value="" style="edgeStyle=orthogonalEdgeStyle;rounded=0;orthogonalLoop=1;jettySize=auto;html=1;" edge="1" parent="WIyWlLk6GJQsqaUBKTNV-1" source="RcemtysnxTZYNu4qjquN-47" target="RcemtysnxTZYNu4qjquN-51">
          <mxGeometry relative="1" as="geometry" />
        </mxCell>
        <mxCell id="RcemtysnxTZYNu4qjquN-47" value="Ignore Email" style="whiteSpace=wrap;html=1;rounded=1;glass=0;strokeWidth=1;shadow=0;" vertex="1" parent="WIyWlLk6GJQsqaUBKTNV-1">
          <mxGeometry x="300" y="280" width="120" height="60" as="geometry" />
        </mxCell>
        <mxCell id="RcemtysnxTZYNu4qjquN-49" value="No" style="text;html=1;align=center;verticalAlign=middle;resizable=0;points=[];autosize=1;strokeColor=none;fillColor=none;" vertex="1" parent="WIyWlLk6GJQsqaUBKTNV-1">
          <mxGeometry x="300" y="220" width="40" height="30" as="geometry" />
        </mxCell>
        <mxCell id="RcemtysnxTZYNu4qjquN-51" value="End" style="strokeWidth=2;html=1;shape=mxgraph.flowchart.terminator;whiteSpace=wrap;" vertex="1" parent="WIyWlLk6GJQsqaUBKTNV-1">
          <mxGeometry x="310" y="520" width="100" height="60" as="geometry" />
        </mxCell>
        <mxCell id="RcemtysnxTZYNu4qjquN-53" value="Add Relevant Email to Academic Updates" style="rounded=1;whiteSpace=wrap;html=1;" vertex="1" parent="WIyWlLk6GJQsqaUBKTNV-1">
          <mxGeometry x="140" y="420" width="120" height="60" as="geometry" />
        </mxCell>
        <mxCell id="RcemtysnxTZYNu4qjquN-60" value="" style="endArrow=classic;html=1;rounded=0;entryX=0;entryY=0.5;entryDx=0;entryDy=0;entryPerimeter=0;" edge="1" parent="WIyWlLk6GJQsqaUBKTNV-1" target="RcemtysnxTZYNu4qjquN-51">
          <mxGeometry width="50" height="50" relative="1" as="geometry">
            <mxPoint x="200" y="480" as="sourcePoint" />
            <mxPoint x="250" y="520" as="targetPoint" />
          </mxGeometry>
        </mxCell>
      </root>
    </mxGraphModel>
  </diagram>
</mxfile>
